<?xml version="1.0" standalone="no"?><!DOCTYPE svg PUBLIC "-//W3C//DTD SVG 1.1//EN" "http://www.w3.org/Graphics/SVG/1.1/DTD/svg11.dtd"><svg t="1557713740771" class="icon" style="" viewBox="0 0 1024 1024" version="1.1" xmlns="http://www.w3.org/2000/svg" p-id="2855" xmlns:xlink="http://www.w3.org/1999/xlink" width="200" height="200"><defs><style type="text/css"></style></defs><path d="M585.142857 768a109.750857 109.750857 0 0 1-219.428571 0c0-45.714286 28.562286-87.442286 73.142857-103.424V585.142857h73.142857v79.433143c44.580571 16.018286 73.142857 57.709714 73.142857 103.424z m73.142857 0a182.345143 182.345143 0 0 0-73.142857-146.285714V182.857143a109.750857 109.750857 0 0 0-219.428571 0v438.857143a182.345143 182.345143 0 0 0-73.142857 146.285714c0 101.156571 81.700571 182.857143 182.857142 182.857143s182.857143-81.700571 182.857143-182.857143z m73.142857 0c0 141.129143-114.870857 256-256 256s-256-114.870857-256-256a255.268571 255.268571 0 0 1 73.142858-178.870857V182.857143c0-101.156571 81.700571-182.857143 182.857142-182.857143s182.857143 81.700571 182.857143 182.857143v406.272A255.232 255.232 0 0 1 731.428571 768z m73.142858-329.142857v73.142857h-109.714286v-73.142857h109.714286z m0-146.285714v73.142857h-109.714286V292.571429h109.714286z m0-146.285715v73.142857h-109.714286V146.285714h109.714286z" fill="" p-id="2856"></path></svg>