<?xml version="1.0" standalone="no"?><!DOCTYPE svg PUBLIC "-//W3C//DTD SVG 1.1//EN" "http://www.w3.org/Graphics/SVG/1.1/DTD/svg11.dtd"><svg t="1557713755456" class="icon" style="" viewBox="0 0 1024 1024" version="1.1" xmlns="http://www.w3.org/2000/svg" p-id="2971" xmlns:xlink="http://www.w3.org/1999/xlink" width="200" height="200"><defs><style type="text/css"></style></defs><path d="M559.13472 768q0 45.714286-32 77.714286t-77.714286 32-77.714285-32-32-77.714286q0-34.285714 20-62.857143t53.142857-40.571428V146.285714h73.142857v518.285715q33.142857 12 53.142857 40.571428t20 62.857143z m73.142857 0q0-44-19.428571-82.285714t-53.714286-64V182.857143q0-45.714286-32-77.714286t-77.714286-32-77.714285 32-32 77.714286v438.857143q-34.285714 25.714286-53.714286 64t-19.428572 82.285714q0 76 53.428572 129.428571T449.420434 950.857143t129.428572-53.428572T632.277577 768z m73.142857 0q0 105.714286-75.142857 180.857143T449.420434 1024t-180.857143-75.142857T193.420434 768q0-104 73.142857-178.857143V182.857143q0-76 53.428572-129.428572T449.420434 0t129.428572 53.428571T632.277577 182.857143v406.285714q73.142857 74.857143 73.142857 178.857143z m73.142857-329.142857v73.142857H668.849006V438.857143h109.714285z m0-146.285714v73.142857H668.849006V292.571429h109.714285z m0-146.285715v73.142857H668.849006V146.285714h109.714285z" p-id="2972"></path></svg>