<?xml version="1.0" standalone="no"?><!DOCTYPE svg PUBLIC "-//W3C//DTD SVG 1.1//EN" "http://www.w3.org/Graphics/SVG/1.1/DTD/svg11.dtd"><svg t="1557468458169" class="icon" style="" viewBox="0 0 1024 1024" version="1.1" xmlns="http://www.w3.org/2000/svg" p-id="1679" xmlns:xlink="http://www.w3.org/1999/xlink" width="200" height="200"><defs><style type="text/css"></style></defs><path d="M282.148802 835.470366c-11.62169-7.747793-21.952081-16.786885-32.282472-25.825978l16.786886-19.369483c9.039092 9.039092 19.369483 16.786885 29.699874 24.534679l-14.204288 20.660782zM348.005044 874.209332c-12.912989-6.456494-25.825977-12.912989-38.738966-20.660782l12.912989-21.952081c11.62169 6.456494 23.24338 12.912989 36.156368 19.369483l-10.330391 23.24338zM413.861286 897.452711c-12.912989-3.873897-25.825977-7.747793-38.738966-12.912988l9.039092-24.534679c11.62169 5.165195 24.534678 9.039092 36.156369 11.62169l-6.456495 25.825977zM523.62169 912.948298c-28.408575 0-55.525851-2.582598-83.934426-9.039092l5.165195-25.825978c117.508197 24.534678 236.307692-6.456494 326.698613-83.934426l16.786885 19.369483c-74.895334 65.856242-167.868852 99.430013-264.716267 99.430013zM794.794451 249.220681c-11.62169-11.62169-23.24338-21.952081-34.865069-30.991173l15.495586-20.660782c12.912989 10.330391 25.825977 21.952081 37.447668 33.573771l-18.078185 18.078184zM735.394704 201.442623c-11.62169-7.747793-23.24338-15.495586-36.156369-21.952081l11.62169-23.243379c12.912989 6.456494 25.825977 14.204288 38.738966 23.243379L735.394704 201.442623zM674.703657 167.868852c-11.62169-5.165195-24.534678-9.039092-36.156368-12.912988l7.747793-24.534679c12.912989 3.873897 25.825977 9.039092 38.738966 14.204288l-10.330391 23.243379zM287.313997 218.229508l-15.495586-20.660782c99.430013-77.477932 225.977301-104.595208 348.650694-73.604035l-6.456495 24.534678c-114.925599-28.408575-233.725095-2.582598-326.698613 69.730139z" fill="#BCC0C4" p-id="1680"></path><path d="M512 507.480454m-329.281211 0a329.281211 329.281211 0 1 0 658.562422 0 329.281211 329.281211 0 1 0-658.562422 0Z" fill="#E9EAEB" p-id="1681"></path><path d="M883.894073 417.089533L531.369483 253.094578c-10.330391-5.165195-23.24338-5.165195-33.573771 0L143.979823 417.089533c-14.204288 6.456494-25.825977 20.660782-25.825977 36.156369v33.57377c0 15.495586 11.62169 29.699874 25.825977 36.156368l353.815889 162.703657c10.330391 5.165195 23.24338 5.165195 33.573771 0l352.52459-162.703657c14.204288-6.456494 21.952081-20.660782 21.952081-36.156368v-33.57377c0-15.495586-7.747793-29.699874-21.952081-36.156369z" fill="#A3D4FF" p-id="1682"></path><path d="M514.582598 703.757881c-7.747793 0-15.495586-1.291299-21.952081-5.165195L138.814628 535.889029c-19.369483-9.039092-32.282472-28.408575-32.282472-47.778058v-33.57377c0-19.369483 12.912989-38.738966 32.282472-47.778059l355.107188-162.703657c14.204288-6.456494 29.699874-6.456494 43.904161 0L890.350567 406.759142c18.078184 9.039092 29.699874 27.117276 29.699874 47.778059v33.57377c0 20.660782-11.62169 40.030265-29.699874 47.778058L536.534678 698.592686c-6.456494 2.582598-14.204288 5.165195-21.95208 5.165195z m0-440.332913c-3.873897 0-7.747793 1.291299-11.62169 2.582598L149.145019 428.711223c-10.330391 5.165195-18.078184 15.495586-18.078184 24.534679v33.57377c0 9.039092 7.747793 19.369483 18.078184 24.534679L502.960908 675.349306c7.747793 3.873897 15.495586 3.873897 23.24338 0l352.52459-162.703657c9.039092-3.873897 15.495586-14.204288 15.495586-24.534678v-33.57377c0-11.62169-5.165195-20.660782-14.204287-24.534679L526.204288 266.007566c-3.873897-2.582598-7.747793-2.582598-11.62169-2.582598z" fill="#2A5082" p-id="1683"></path><path d="M539.039798 579.689887L810.160908 437.711576l11.983253 22.881816-271.121109 141.97831zM202.320706 460.477175l11.983254-22.881816 271.08237 141.991224-11.983253 22.881815z" fill="#2A5082" p-id="1684"></path><path d="M515.873897 364.14628l-113.634301 50.360656v3.873896l117.508197 52.943254 114.925599-51.651955v-2.582598z" fill="#FFFFFF" p-id="1685"></path><path d="M519.747793 485.528373L389.326608 426.128625v-20.660781L515.873897 348.650694l131.712484 59.399747v19.369483l-127.838588 58.108449z m-90.39092-68.43884l90.39092 41.321564 86.517024-38.738966-90.39092-41.321564-86.517024 38.738966z" fill="#2A5082" p-id="1686"></path><path d="M660.499369 617.240858c-7.747793-14.204288-24.534678-20.660782-38.738965-12.912989-14.204288 7.747793-20.660782 24.534678-12.912989 38.738966l25.825977 38.738966v38.738966c0 14.204288 11.62169 25.825977 25.825977 25.825977s25.825977-11.62169 25.825978-25.825977v-64.564944l-25.825978-38.738965z" fill="#FFFFFF" p-id="1687"></path><path d="M660.499369 759.283733c-21.952081 0-38.738966-16.786885-38.738965-38.738966v-34.86507l-24.534679-37.447667c-5.165195-10.330391-5.165195-21.952081-2.582598-32.282471s10.330391-19.369483 20.660782-24.534679c10.330391-5.165195 20.660782-6.456494 32.282472-2.582598 10.330391 3.873897 18.078184 10.330391 23.243379 20.660782l27.117277 41.321564v68.43884c1.291299 21.952081-15.495586 40.030265-37.447668 40.030265z m-40.030264-122.673393l27.117276 41.321564v42.612863c0 7.747793 5.165195 12.912989 12.912988 12.912988s12.912989-5.165195 12.912989-12.912988v-60.691047l-24.534678-37.447667c-1.291299-3.873897-5.165195-6.456494-9.039092-7.747793-3.873897-1.291299-7.747793-1.291299-11.62169 1.291299-3.873897 1.291299-6.456494 5.165195-7.747793 9.039092-2.582598 3.873897-1.291299 7.747793 0 11.621689z" fill="#2A5082" p-id="1688"></path><path d="M712.151324 591.41488c-7.747793-14.204288-24.534678-20.660782-38.738966-12.912988-14.204288 7.747793-20.660782 24.534678-12.912989 38.738966l25.825978 38.738965v38.738966c0 14.204288 11.62169 25.825977 25.825977 25.825978s25.825977-11.62169 25.825977-25.825978v-64.564943l-25.825977-38.738966z" fill="#FFFFFF" p-id="1689"></path><path d="M712.151324 733.457755c-21.952081 0-38.738966-16.786885-38.738966-38.738966v-34.865069l-24.534678-37.447667c-5.165195-10.330391-5.165195-21.952081-2.582598-32.282472s10.330391-19.369483 20.660782-24.534678c10.330391-5.165195 20.660782-6.456494 32.282471-2.582598 10.330391 3.873897 18.078184 10.330391 23.24338 20.660782l27.117276 41.321564v68.43884c1.291299 21.952081-15.495586 40.030265-37.447667 40.030264z m-40.030265-122.673392l27.117276 41.321564v42.612862c0 7.747793 5.165195 12.912989 12.912989 12.912989s12.912989-5.165195 12.912989-12.912989v-60.691046l-24.534679-37.447667c-1.291299-3.873897-5.165195-6.456494-9.039092-7.747794-3.873897-1.291299-7.747793-1.291299-11.62169 1.291299-3.873897 1.291299-6.456494 5.165195-7.747793 9.039092-2.582598 3.873897-1.291299 7.747793 0 11.62169z" fill="#2A5082" p-id="1690"></path><path d="M763.803279 565.588903c-7.747793-14.204288-24.534678-20.660782-38.738966-12.912989-14.204288 7.747793-20.660782 24.534678-12.912989 38.738966l25.825977 38.738966v38.738966c0 14.204288 11.62169 25.825977 25.825978 25.825977s25.825977-11.62169 25.825977-25.825977v-64.564943l-25.825977-38.738966z" fill="#FFFFFF" p-id="1691"></path><path d="M763.803279 707.631778c-21.952081 0-38.738966-16.786885-38.738966-38.738966v-34.865069l-24.534679-37.447667c-5.165195-10.330391-5.165195-21.952081-2.582597-32.282472s10.330391-19.369483 20.660781-24.534678c10.330391-5.165195 20.660782-6.456494 32.282472-2.582598 10.330391 3.873897 18.078184 10.330391 23.24338 20.660782l27.117276 41.321563v68.43884c1.291299 21.952081-15.495586 40.030265-37.447667 40.030265z m-40.030265-122.673392l27.117276 41.321564v42.612862c0 7.747793 5.165195 12.912989 12.912989 12.912989s12.912989-5.165195 12.912988-12.912989v-60.691047l-24.534678-37.447667c-1.291299-3.873897-5.165195-6.456494-9.039092-7.747793-3.873897-1.291299-7.747793-1.291299-11.62169 1.291299-3.873897 1.291299-6.456494 5.165195-7.747793 9.039092-2.582598 3.873897-1.291299 7.747793 0 11.62169z" fill="#2A5082" p-id="1692"></path><path d="M815.455233 539.762926c-7.747793-14.204288-24.534678-20.660782-38.738966-12.912989-14.204288 7.747793-20.660782 24.534678-12.912988 38.738966l25.825977 38.738966v38.738966c0 14.204288 11.62169 25.825977 25.825977 25.825977s25.825977-11.62169 25.825978-25.825977v-64.564943l-25.825978-38.738966z" fill="#FFFFFF" p-id="1693"></path><path d="M815.455233 681.805801c-21.952081 0-38.738966-16.786885-38.738966-38.738966v-34.86507l-24.534678-37.447667c-5.165195-10.330391-5.165195-21.952081-2.582598-32.282471s10.330391-19.369483 20.660782-24.534679c10.330391-5.165195 20.660782-5.165195 32.282472-2.582597 10.330391 3.873897 18.078184 10.330391 23.243379 20.660781l27.117276 41.321564v68.43884c1.291299 21.952081-15.495586 40.030265-37.447667 40.030265z m-40.030265-122.673392l27.117277 41.321563v42.612863c0 7.747793 5.165195 12.912989 12.912988 12.912988s12.912989-5.165195 12.912989-12.912988v-60.691047l-24.534678-37.447667c-1.291299-3.873897-5.165195-6.456494-9.039093-7.747793-3.873897-1.291299-7.747793-1.291299-11.621689 1.291299-3.873897 1.291299-6.456494 5.165195-7.747794 9.039092-2.582598 3.873897-1.291299 7.747793 0 11.62169z" fill="#2A5082" p-id="1694"></path><path d="M867.107188 513.936948c-7.747793-14.204288-24.534678-20.660782-38.738966-12.912988-14.204288 7.747793-20.660782 24.534678-12.912989 38.738966l25.825978 38.738966v38.738966c0 14.204288 11.62169 25.825977 25.825977 25.825977s25.825977-11.62169 25.825977-25.825977v-64.564944l-25.825977-38.738966z" fill="#FFFFFF" p-id="1695"></path><path d="M867.107188 655.979823c-21.952081 0-38.738966-16.786885-38.738966-38.738965v-34.86507l-24.534678-37.447667c-5.165195-10.330391-5.165195-21.952081-2.582598-32.282472s10.330391-19.369483 20.660782-24.534678c10.330391-5.165195 20.660782-6.456494 32.282471-2.582598 10.330391 3.873897 18.078184 10.330391 23.24338 20.660782l27.117276 41.321564v68.43884c1.291299 21.952081-15.495586 40.030265-37.447667 40.030264z m-40.030265-122.673392l27.117276 41.321564v42.612863c0 7.747793 5.165195 12.912989 12.912989 12.912988s12.912989-5.165195 12.912989-12.912988v-60.691047l-24.534679-37.447667c-1.291299-3.873897-5.165195-6.456494-9.039092-7.747793-3.873897-1.291299-7.747793-1.291299-11.62169 1.291298-3.873897 1.291299-6.456494 5.165195-7.747793 9.039092-2.582598 3.873897-1.291299 7.747793 0 11.62169z" fill="#2A5082" p-id="1696"></path><path d="M375.12232 617.240858c7.747793-14.204288 23.24338-20.660782 37.447667-12.912989s20.660782 24.534678 14.204288 38.738966l-24.534679 38.738966v38.738966c0 14.204288-11.62169 25.825977-25.825977 25.825977s-25.825977-11.62169-25.825977-25.825977v-64.564944l24.534678-38.738965z" fill="#FFFFFF" p-id="1697"></path><path d="M376.413619 759.283733c-21.952081 0-38.738966-16.786885-38.738966-38.738966v-68.43884l25.825978-41.321564c10.330391-20.660782 34.865069-28.408575 55.525851-18.078184 10.330391 5.165195 18.078184 12.912989 21.95208 23.24338 3.873897 10.330391 3.873897 21.952081-1.291298 32.282471l-1.291299 1.291299-23.24338 36.156368v34.86507c0 20.660782-16.786885 38.738966-38.738966 38.738966z m-12.912988-99.430013v60.691047c0 7.747793 5.165195 12.912989 12.912988 12.912988s12.912989-5.165195 12.912989-12.912988v-42.612863l25.825977-41.321564c1.291299-3.873897 1.291299-7.747793 0-11.621689-1.291299-3.873897-5.165195-7.747793-9.039092-9.039092-7.747793-3.873897-16.786885-1.291299-20.660782 7.747793v1.291299l-21.95208 34.865069z" fill="#2A5082" p-id="1698"></path><path d="M323.470366 591.41488c7.747793-14.204288 23.24338-20.660782 37.447667-12.912988s20.660782 24.534678 14.204287 38.738966l-24.534678 38.738965v38.738966c0 14.204288-11.62169 25.825977-25.825977 25.825978s-25.825977-11.62169-25.825978-25.825978v-64.564943l24.534679-38.738966z" fill="#FFFFFF" p-id="1699"></path><path d="M324.761665 733.457755c-21.952081 0-38.738966-16.786885-38.738966-38.738966v-68.438839l25.825977-41.321564c10.330391-20.660782 34.865069-28.408575 55.525851-18.078184 10.330391 5.165195 18.078184 12.912989 21.952081 23.243379 3.873897 10.330391 3.873897 21.952081-1.291299 32.282472l-1.291299 1.291299-23.243379 36.156368v34.865069c0 20.660782-16.786885 38.738966-38.738966 38.738966z m-12.912989-99.430012v60.691046c0 7.747793 5.165195 12.912989 12.912989 12.912989s12.912989-5.165195 12.912988-12.912989v-42.612862l25.825978-41.321564c1.291299-3.873897 1.291299-7.747793 0-11.62169-1.291299-3.873897-5.165195-7.747793-9.039093-9.039092-7.747793-3.873897-16.786885-1.291299-20.660781 7.747794v1.291298l-21.952081 34.86507z" fill="#2A5082" p-id="1700"></path><path d="M271.818411 565.588903c7.747793-14.204288 23.24338-20.660782 37.447667-12.912989s20.660782 24.534678 14.204288 38.738966l-24.534679 38.738966v38.738966c0 14.204288-11.62169 25.825977-25.825977 25.825977s-25.825977-11.62169-25.825977-25.825977v-64.564943l24.534678-38.738966z" fill="#FFFFFF" p-id="1701"></path><path d="M273.10971 707.631778c-21.952081 0-38.738966-16.786885-38.738966-38.738966v-68.43884l25.825977-41.321563c10.330391-20.660782 34.865069-28.408575 55.525852-18.078185 10.330391 5.165195 18.078184 12.912989 21.95208 23.24338 3.873897 10.330391 3.873897 21.952081-1.291299 32.282472l-1.291299 1.291299-23.243379 36.156368v34.865069c0 20.660782-16.786885 38.738966-38.738966 38.738966z m-12.912989-99.430013v60.691047c0 7.747793 5.165195 12.912989 12.912989 12.912989s12.912989-5.165195 12.912989-12.912989v-42.612862l25.825977-41.321564c1.291299-3.873897 1.291299-7.747793 0-11.62169-1.291299-3.873897-5.165195-7.747793-9.039092-9.039092-7.747793-3.873897-16.786885-1.291299-20.660782 7.747793v1.291299l-21.952081 34.865069z" fill="#2A5082" p-id="1702"></path><path d="M220.166456 539.762926c7.747793-14.204288 23.24338-20.660782 37.447668-12.912989s20.660782 24.534678 14.204287 38.738966l-24.534678 38.738966v38.738966c0 14.204288-11.62169 25.825977-25.825978 25.825977s-25.825977-11.62169-25.825977-25.825977v-64.564943l24.534678-38.738966z" fill="#FFFFFF" p-id="1703"></path><path d="M221.457755 681.805801c-21.952081 0-38.738966-16.786885-38.738966-38.738966v-68.43884l25.825978-41.321564c10.330391-20.660782 34.865069-28.408575 55.525851-18.078184 10.330391 5.165195 18.078184 12.912989 21.952081 23.24338 3.873897 10.330391 3.873897 21.952081-1.291299 32.282471l-1.291299 1.291299-23.24338 36.156368v34.86507c0 20.660782-16.786885 38.738966-38.738966 38.738966z m-12.912988-99.430013v60.691047c0 7.747793 5.165195 12.912989 12.912988 12.912988s12.912989-5.165195 12.912989-12.912988v-42.612863l25.825977-41.321563c1.291299-3.873897 1.291299-7.747793 0-11.62169-1.291299-3.873897-5.165195-7.747793-9.039092-9.039092-7.747793-3.873897-16.786885-1.291299-20.660782 7.747793v1.291299l-21.95208 34.865069z" fill="#2A5082" p-id="1704"></path><path d="M168.514502 513.936948c7.747793-14.204288 23.24338-20.660782 37.447667-12.912988s20.660782 24.534678 14.204287 38.738966l-24.534678 38.738966v38.738966c0 14.204288-11.62169 25.825977-25.825977 25.825977s-25.825977-11.62169-25.825978-25.825977v-64.564944l24.534679-38.738966z" fill="#FFFFFF" p-id="1705"></path><path d="M169.805801 655.979823c-21.952081 0-38.738966-16.786885-38.738966-38.738965v-68.43884l25.825977-41.321564c10.330391-20.660782 34.865069-28.408575 55.525851-18.078184 10.330391 5.165195 18.078184 12.912989 21.952081 23.243379 3.873897 10.330391 3.873897 21.952081-1.291299 32.282472l-1.291299 1.291299-23.243379 36.156368v34.86507c0 20.660782-16.786885 38.738966-38.738966 38.738965z m-12.912989-99.430012v60.691047c0 7.747793 5.165195 12.912989 12.912989 12.912988s12.912989-5.165195 12.912988-12.912988v-42.612863l25.825978-41.321564c1.291299-3.873897 1.291299-7.747793 0-11.62169-1.291299-3.873897-5.165195-7.747793-9.039092-9.039092-6.456494-3.873897-15.495586-1.291299-19.369483 6.456495v1.291299l-23.24338 36.156368z" fill="#2A5082" p-id="1706"></path></svg>